<?xml version="1.0" standalone="no"?><!DOCTYPE svg PUBLIC "-//W3C//DTD SVG 1.1//EN" "http://www.w3.org/Graphics/SVG/1.1/DTD/svg11.dtd"><svg t="1614518546892" class="icon" viewBox="0 0 1024 1024" version="1.1" xmlns="http://www.w3.org/2000/svg" p-id="2524" xmlns:xlink="http://www.w3.org/1999/xlink" width="200" height="200"><defs><style type="text/css"></style></defs><path d="M832 960H192A128 128 0 0 1 64 832V192A128 128 0 0 1 192 64h384v128H256a64 64 0 0 0-64 64v512a64 64 0 0 0 64 64h512a64 64 0 0 0 64-64V448h128v384a128 128 0 0 1-128 128zM304.832 623.616L866.624 61.824l90.496 90.56-561.792 561.792-90.496-90.56z" p-id="2525" fill="#707070"></path></svg>