<?xml version="1.0" standalone="no"?><!DOCTYPE svg PUBLIC "-//W3C//DTD SVG 1.1//EN" "http://www.w3.org/Graphics/SVG/1.1/DTD/svg11.dtd"><svg t="1706678494737" class="icon" viewBox="0 0 1024 1024" version="1.1" xmlns="http://www.w3.org/2000/svg" p-id="1521" xmlns:xlink="http://www.w3.org/1999/xlink" width="200" height="200"><path d="M469.333333 469.333333V341.333333a42.666667 42.666667 0 0 1 85.333334 0v128h128a42.666667 42.666667 0 0 1 0 85.333334h-128v128a42.666667 42.666667 0 0 1-85.333334 0v-128H341.333333a42.666667 42.666667 0 0 1 0-85.333334h128z m42.666667 469.333334C276.352 938.666667 85.333333 747.648 85.333333 512S276.352 85.333333 512 85.333333s426.666667 191.018667 426.666667 426.666667-191.018667 426.666667-426.666667 426.666667z m0-85.333334a341.333333 341.333333 0 1 0 0-682.666666 341.333333 341.333333 0 0 0 0 682.666666z" fill="#5D6E7F" p-id="1522"></path></svg>