<?xml version="1.0" standalone="no"?><!DOCTYPE svg PUBLIC "-//W3C//DTD SVG 1.1//EN" "http://www.w3.org/Graphics/SVG/1.1/DTD/svg11.dtd"><svg t="1706678503553" class="icon" viewBox="0 0 1024 1024" version="1.1" xmlns="http://www.w3.org/2000/svg" p-id="1675" xmlns:xlink="http://www.w3.org/1999/xlink" width="200" height="200"><path d="M778.965333 128a170.666667 170.666667 0 0 1 170.666667 170.666667v426.666666a170.666667 170.666667 0 0 1-170.666667 170.666667H367.786667a213.333333 213.333333 0 0 1-177.493334-95.018667l-145.365333-218.026666a128 128 0 0 1 0-141.952l145.322667-218.026667A213.333333 213.333333 0 0 1 367.786667 128z m0 85.333333H367.786667a128 128 0 0 0-106.538667 57.002667l-145.28 218.026667a42.666667 42.666667 0 0 0 0 47.317333l145.28 217.984A128 128 0 0 0 367.829333 810.666667h411.136a85.333333 85.333333 0 0 0 85.333334-85.333334V298.666667a85.333333 85.333333 0 0 0-85.333334-85.333334z m-318.805333 144.256l4.010667 3.584L554.666667 451.669333l90.453333-90.496a42.666667 42.666667 0 0 1 56.362667-3.584l4.053333 3.541334a42.666667 42.666667 0 0 1 3.541333 56.362666l-3.584 4.010667L614.997333 512l90.496 90.453333a42.666667 42.666667 0 0 1 3.584 56.362667l-3.584 4.053333a42.666667 42.666667 0 0 1-60.330666 0L554.666667 572.288l-90.453334 90.496a42.666667 42.666667 0 0 1-56.362666 3.584l-4.053334-3.541333a42.666667 42.666667 0 0 1-3.541333-56.362667l3.584-4.010667L494.336 512 403.84 421.546667a42.666667 42.666667 0 0 1-3.584-56.362667l3.541333-4.053333a42.666667 42.666667 0 0 1 56.362667-3.541334z" fill="#5D6E7F" p-id="1676"></path></svg>